<svg width="80" height="66" viewBox="0 0 80 66" fill="none" xmlns="http://www.w3.org/2000/svg">
<circle cx="32" cy="33" r="32" fill="#4CE0D7"/>
<path d="M23.0555 14.5555C23.5531 14.0578 24.2406 13.75 25 13.75H69C69.7594 13.75 70.4469 14.0578 70.9445 14.5555M23.0555 14.5555C22.5578 15.0531 22.25 15.7406 22.25 16.5V49.5C22.25 51.0188 23.4812 52.25 25 52.25H69C70.5188 52.25 71.75 51.0188 71.75 49.5V16.5C71.75 15.7406 71.4422 15.0531 70.9445 14.5555M23.0555 14.5555L43.1109 34.6108C45.2588 36.7587 48.7412 36.7587 50.8891 34.6108L70.9445 14.5555" stroke="#262626" stroke-width="2.6" stroke-linecap="round" stroke-linejoin="round"/>
</svg>
