<svg width="66" height="66" viewBox="0 0 66 66" fill="none" xmlns="http://www.w3.org/2000/svg">
<path d="M49.5 51.4479C49.5 46.9935 46.2778 41.2499 41.25 41.25H24.75C19.7222 41.2499 16.5 46.9935 16.5 51.4479M8.25 33C8.25 19.331 19.331 8.25 33 8.25C46.669 8.25 57.75 19.331 57.75 33C57.75 46.669 46.669 57.75 33 57.75C19.331 57.75 8.25 46.669 8.25 33ZM41.25 24.75C41.25 29.3063 37.5563 33 33 33C28.4437 33 24.75 29.3063 24.75 24.75C24.75 20.1937 28.4437 16.5 33 16.5C37.5563 16.5 41.25 20.1937 41.25 24.75Z" stroke="#BCBCBC" stroke-width="2.6"/>
</svg>
