<svg width="361" height="361" viewBox="0 0 361 361" fill="none" xmlns="http://www.w3.org/2000/svg">
<path d="M136.579 183.659L159.141 161.096C160.551 159.698 161.67 158.034 162.434 156.201C163.197 154.369 163.59 152.403 163.59 150.417C163.59 148.431 163.197 146.465 162.434 144.632C161.67 142.799 160.551 141.136 159.141 139.737L136.579 117.175C133.746 114.342 129.905 112.751 125.899 112.751C121.893 112.751 118.052 114.342 115.219 117.175C112.387 120.007 110.796 123.849 110.796 127.854C110.796 131.86 112.387 135.702 115.219 138.534L127.253 150.417L115.219 162.3C113.81 163.698 112.691 165.362 111.927 167.195C111.163 169.028 110.77 170.994 110.77 172.979C110.77 174.965 111.163 176.931 111.927 178.764C112.691 180.597 113.81 182.261 115.219 183.659C116.625 185.053 118.292 186.156 120.124 186.904C121.957 187.653 123.919 188.032 125.899 188.021C127.879 188.032 129.841 187.653 131.674 186.904C133.506 186.156 135.173 185.053 136.579 183.659ZM125.749 230.589C122.717 233.135 120.811 236.774 120.445 240.716C120.079 244.659 121.282 248.586 123.793 251.647C125.056 253.17 126.607 254.429 128.357 255.352C130.107 256.275 132.022 256.844 133.992 257.025C135.962 257.207 137.949 256.998 139.838 256.411C141.727 255.823 143.482 254.869 145.002 253.603C155.057 245.496 167.584 241.075 180.5 241.075C193.416 241.075 205.943 245.496 215.999 253.603C217.518 254.869 219.273 255.823 221.163 256.411C223.052 256.998 225.039 257.207 227.009 257.025C228.979 256.844 230.894 256.275 232.644 255.352C234.394 254.429 235.945 253.17 237.207 251.647C239.718 248.586 240.921 244.659 240.555 240.716C240.189 236.774 238.284 233.135 235.252 230.589C219.731 218.113 200.414 211.312 180.5 211.312C160.586 211.312 141.27 218.113 125.749 230.589ZM249.391 117.175C247.993 115.765 246.329 114.646 244.496 113.882C242.663 113.119 240.697 112.725 238.711 112.725C236.726 112.725 234.76 113.119 232.927 113.882C231.094 114.646 229.43 115.765 228.032 117.175L205.469 139.737C204.06 141.136 202.941 142.799 202.177 144.632C201.413 146.465 201.02 148.431 201.02 150.417C201.02 152.403 201.413 154.369 202.177 156.201C202.941 158.034 204.06 159.698 205.469 161.096L228.032 183.659C229.437 185.053 231.104 186.156 232.937 186.904C234.77 187.653 236.732 188.032 238.711 188.021C240.691 188.032 242.653 187.653 244.486 186.904C246.319 186.156 247.986 185.053 249.391 183.659C250.801 182.261 251.92 180.597 252.684 178.764C253.447 176.931 253.84 174.965 253.84 172.979C253.84 170.994 253.447 169.028 252.684 167.195C251.92 165.362 250.801 163.698 249.391 162.3L237.508 150.417L249.391 138.534C250.801 137.136 251.92 135.472 252.684 133.639C253.447 131.806 253.84 129.84 253.84 127.854C253.84 125.869 253.447 123.903 252.684 122.07C251.92 120.237 250.801 118.573 249.391 117.175ZM180.5 30.0835C150.751 30.0835 121.669 38.9053 96.9332 55.4333C72.1973 71.9613 52.918 95.4531 41.5334 122.938C30.1487 150.423 27.1699 180.667 32.9738 209.845C38.7776 239.023 53.1034 265.825 74.1396 286.861C95.1757 307.897 121.977 322.223 151.155 328.027C180.333 333.83 210.577 330.852 238.062 319.467C265.547 308.082 289.039 288.803 305.567 264.067C322.095 239.331 330.917 210.25 330.917 180.5C330.917 160.747 327.026 141.188 319.467 122.938C311.908 104.689 300.828 88.107 286.861 74.1395C272.893 60.172 256.312 49.0924 238.062 41.5333C219.813 33.9741 200.253 30.0835 180.5 30.0835ZM180.5 300.833C156.701 300.833 133.435 293.776 113.647 280.554C93.8579 267.331 78.4345 248.538 69.3267 226.55C60.219 204.562 57.836 180.367 62.4791 157.024C67.1222 133.682 78.5828 112.241 95.4117 95.4116C112.241 78.5827 133.682 67.1221 157.024 62.479C180.367 57.8359 204.562 60.2189 226.55 69.3267C248.538 78.4344 267.331 93.8578 280.554 113.647C293.776 133.435 300.834 156.7 300.834 180.5C300.834 212.415 288.156 243.022 265.589 265.589C243.022 288.156 212.415 300.833 180.5 300.833Z" fill="#BCBCBC"/>
</svg>
